<?xml version="1.0" encoding="UTF-8" standalone="no"?>
<!-- Created with Inkscape (http://www.inkscape.org/) -->

<svg
   width="393.0744mm"
   height="274.47006mm"
   viewBox="0 0 393.0744 274.47006"
   version="1.1"
   id="svg5"
   xml:space="preserve"
   inkscape:version="1.2.2 (b0a84865, 2022-12-01)"
   sodipodi:docname="aprendizado-supervisionado.svg"
   inkscape:export-filename="aprendizado-supervisionado.png"
   inkscape:export-xdpi="96"
   inkscape:export-ydpi="96"
   xmlns:inkscape="http://www.inkscape.org/namespaces/inkscape"
   xmlns:sodipodi="http://sodipodi.sourceforge.net/DTD/sodipodi-0.dtd"
   xmlns="http://www.w3.org/2000/svg"
   xmlns:svg="http://www.w3.org/2000/svg"><sodipodi:namedview
     id="namedview7"
     pagecolor="#ffffff"
     bordercolor="#666666"
     borderopacity="1.0"
     inkscape:showpageshadow="2"
     inkscape:pageopacity="0.0"
     inkscape:pagecheckerboard="0"
     inkscape:deskcolor="#d1d1d1"
     inkscape:document-units="mm"
     showgrid="false"
     showguides="false"
     inkscape:zoom="0.28784342"
     inkscape:cx="571.49126"
     inkscape:cy="557.59482"
     inkscape:window-width="1436"
     inkscape:window-height="847"
     inkscape:window-x="0"
     inkscape:window-y="25"
     inkscape:window-maximized="0"
     inkscape:current-layer="layer1" /><defs
     id="defs2"><rect
       x="242.59966"
       y="475.77798"
       width="320.07635"
       height="80.275589"
       id="rect4203" /><rect
       x="242.59966"
       y="475.77798"
       width="313.25977"
       height="117.76683"
       id="rect915" /><rect
       x="242.59966"
       y="475.77798"
       width="313.25977"
       height="117.76683"
       id="rect925" /><rect
       x="242.59966"
       y="475.77798"
       width="313.25977"
       height="117.76683"
       id="rect2867" /><rect
       x="242.59966"
       y="475.77798"
       width="313.25977"
       height="117.76683"
       id="rect2883" /><rect
       x="242.59966"
       y="475.77798"
       width="313.25977"
       height="117.76683"
       id="rect2948" /><rect
       x="242.59966"
       y="475.77798"
       width="313.25977"
       height="117.76683"
       id="rect2959" /></defs><g
     inkscape:label="Camada 1"
     inkscape:groupmode="layer"
     id="layer1"
     transform="translate(-405.18137,41.422253)"><rect
       style="fill:#5c626e;fill-opacity:1;stroke-width:311.486;stroke-linecap:round"
       id="rect18357"
       width="393.0744"
       height="274.47006"
       x="405.18137"
       y="-41.422253"
       ry="11.04563" /><g
       id="g679"
       transform="translate(6.2237354,-5.2501657)"><path
         id="rect878"
         style="fill:#383d4b;fill-opacity:1;stroke-width:264.583;stroke-linecap:round"
         d="m 583.51693,127.49693 c -0.0603,-0.003 -0.10733,0.004 -0.1385,0.0217 -0.19711,0.1138 -0.31478,0.99476 -0.35605,2.03347 H 553.7389 c -0.46826,0 -0.84543,0.37665 -0.84543,0.84491 0,0.46826 0.37717,0.84543 0.84543,0.84543 h 29.28348 c 0.0413,1.03871 0.15894,1.91966 0.35605,2.03346 0.49862,0.28788 4.98626,-2.30313 4.98626,-2.87889 0,-0.53977 -3.94389,-2.85053 -4.84776,-2.90008 z" /><rect
         style="fill:#4b95a1;fill-opacity:1;stroke-width:244.965;stroke-linecap:round"
         id="rect3836"
         width="30.535957"
         height="27.243999"
         x="588.36475"
         y="116.7752"
         ry="9.3484344" /><text
         xml:space="preserve"
         style="font-style:normal;font-weight:normal;font-size:10.5833px;line-height:1.25;font-family:sans-serif;fill:#ffffff;fill-opacity:1;stroke:none;stroke-width:0.264583"
         x="603.63275"
         y="135.54417"
         id="text3840"><tspan
           sodipodi:role="line"
           id="tspan3838"
           style="font-weight:normal;text-align:center;text-anchor:middle;fill:#ffffff;fill-opacity:1;stroke-width:0.264583"
           x="603.63275"
           y="135.54417">Ỹ</tspan></text><rect
         style="fill:#4b95a1;fill-opacity:1;stroke-width:274.641;stroke-linecap:round"
         id="rect231"
         width="110.30335"
         height="59.760147"
         x="447.52545"
         y="33.003487"
         ry="12.941564" /><text
         xml:space="preserve"
         style="font-style:normal;font-weight:normal;font-size:10.5833px;line-height:1.25;font-family:sans-serif;fill:#ffffff;fill-opacity:1;stroke:none;stroke-width:0.264583"
         x="502.88901"
         y="50.452602"
         id="text2380"><tspan
           sodipodi:role="line"
           id="tspan2378"
           style="font-style:normal;font-variant:normal;font-weight:normal;font-stretch:normal;font-family:'Brush Script MT';-inkscape-font-specification:'Brush Script MT';text-align:center;text-anchor:middle;fill:#ffffff;fill-opacity:1;stroke-width:0.264583"
           x="502.88901"
           y="50.452602">D</tspan></text><path
         id="rect867"
         style="fill:#383d4b;fill-opacity:1;stroke-width:264.583;stroke-linecap:round"
         d="m 431.41251,72.576253 c -0.0293,0 -0.0583,0.0013 -0.0868,0.0041 -0.057,0.0058 -0.11237,0.01717 -0.16537,0.03359 -0.0528,0.01638 -0.10363,0.03821 -0.15141,0.06408 -0.0719,0.03892 -0.13751,0.08795 -0.19482,0.14521 -0.0382,0.03817 -0.0725,0.07961 -0.10284,0.124541 v 5.16e-4 c -0.0151,0.02235 -0.0294,0.04543 -0.0424,0.06925 v 5.17e-4 c -0.0129,0.02382 -0.025,0.04823 -0.0357,0.07338 v 5.17e-4 c -0.0319,0.07574 -0.0534,0.157086 -0.062,0.242362 v 5.17e-4 c -0.003,0.02832 -0.004,0.05721 -0.004,0.0863 v 5.16e-4 16.40365 24.167511 16.40417 c 0,0.46826 0.37716,0.84543 0.84542,0.84543 h 10.7704 c 0.0413,1.03871 0.15946,1.91966 0.35657,2.03346 0.49862,0.28788 4.98574,-2.30313 4.98574,-2.87889 0,-0.57576 -4.48712,-3.16626 -4.98574,-2.87838 -0.19711,0.1138 -0.3153,0.99476 -0.35657,2.03347 H 432.2575 V 113.99284 89.825329 74.266589 h 39.72626 c 0.46826,0 0.84543,-0.376648 0.84543,-0.84491 0,-0.46826 -0.37717,-0.845426 -0.84543,-0.845426 z" /><rect
         style="fill:#ffffff;fill-opacity:1;stroke-width:244.965;stroke-linecap:round"
         id="rect2492"
         width="30.535957"
         height="27.243999"
         x="460.92389"
         y="59.799496"
         ry="9.3484344" /><text
         xml:space="preserve"
         style="font-style:normal;font-weight:normal;font-size:10.5833px;line-height:1.25;font-family:sans-serif;fill:#1c1e25;fill-opacity:1;stroke:none;stroke-width:0.264583"
         x="476.19186"
         y="76.971657"
         id="text2384"><tspan
           sodipodi:role="line"
           id="tspan2382"
           style="font-style:normal;font-variant:normal;font-weight:normal;font-stretch:normal;font-family:Charter;-inkscape-font-specification:Charter;text-align:center;text-anchor:middle;fill:#1c1e25;fill-opacity:1;stroke-width:0.264583"
           x="476.19186"
           y="76.971657">X</tspan></text><rect
         style="fill:#c1586f;fill-opacity:1;stroke-width:384.822;stroke-linecap:round"
         id="rect2875"
         width="110.30335"
         height="117.3274"
         x="650.11914"
         y="71.903328"
         ry="12.343666" /><path
         id="rect979"
         style="fill:#383d4b;fill-opacity:1;stroke-width:264.583;stroke-linecap:round"
         d="m 539.03954,72.576253 c -0.46826,0 -0.84543,0.377169 -0.84543,0.845426 0,0.468262 0.37717,0.84491 0.84543,0.84491 h 24.02179 16.54937 13.98623 10.03556 29.69122 v 15.55874 24.167511 1.56011 13.99915 h -14.4229 v 1.69034 h 15.2678 5.2e-4 c 0.11688,-7e-5 0.22814,-0.0236 0.32918,-0.0661 0.22746,-0.096 0.40359,-0.28879 0.47749,-0.5271 v -5.2e-4 c 0.008,-0.0263 0.0156,-0.0532 0.0212,-0.0806 v -5.2e-4 c 0.006,-0.0276 0.01,-0.0552 0.0124,-0.0837 0.003,-0.0285 0.005,-0.0576 0.005,-0.0868 v -13.99863 h 15.90446 c 0.0413,1.03872 0.15945,1.91967 0.35656,2.03347 0.49862,0.28788 4.98626,-2.30314 4.98626,-2.8789 0,-0.53975 -3.94441,-2.85053 -4.84828,-2.90008 -0.0603,-0.003 -0.10681,0.003 -0.13798,0.0212 -0.19711,0.1138 -0.31529,0.99527 -0.35656,2.03399 H 635.0144 v -0.71521 -24.167511 -16.40365 -0.001 c -7e-5,-0.05817 -0.006,-0.115221 -0.0171,-0.170016 -0.011,-0.05403 -0.0273,-0.105855 -0.0481,-0.155546 -10e-4,-0.0026 -0.002,-0.0051 -0.004,-0.0078 -0.0191,-0.0445 -0.0421,-0.087 -0.0682,-0.127124 -0.005,-0.0079 -0.0102,-0.01559 -0.0155,-0.02325 -0.0284,-0.04057 -0.0597,-0.0788 -0.0946,-0.113689 -0.0349,-0.03489 -0.0731,-0.06621 -0.11369,-0.09457 -0.008,-0.0054 -0.0154,-0.0104 -0.0232,-0.0155 -0.0401,-0.02612 -0.0826,-0.04912 -0.12713,-0.06821 -10e-4,-6.39e-4 -0.003,-0.002 -0.004,-0.0026 -1.5e-4,-6.3e-5 -3.7e-4,6.3e-5 -5.2e-4,0 -9.9e-4,-4.2e-4 -0.002,-6.18e-4 -0.003,-0.001 -0.0497,-0.02072 -0.10151,-0.03706 -0.15555,-0.04806 -0.0548,-0.01116 -0.11184,-0.01698 -0.17001,-0.01705 h -10e-4 -30.53612 -10.03556 -13.98623 -16.54937 z" /><rect
         style="fill:#ffffff;fill-opacity:1;stroke-width:244.965;stroke-linecap:round"
         id="rect3810"
         width="30.535957"
         height="27.243999"
         x="513.89441"
         y="59.799496"
         ry="9.3484344" /><text
         xml:space="preserve"
         style="font-style:normal;font-weight:normal;font-size:10.5833px;line-height:1.25;font-family:sans-serif;fill:#1c1e25;fill-opacity:1;stroke:none;stroke-width:0.264583"
         x="529.12103"
         y="76.971657"
         id="text3814"><tspan
           sodipodi:role="line"
           id="tspan3812"
           style="font-style:normal;font-variant:normal;font-weight:normal;font-stretch:normal;font-family:Charter;-inkscape-font-specification:Charter;text-align:center;text-anchor:middle;fill:#1c1e25;fill-opacity:1;stroke-width:0.264583"
           x="529.12103"
           y="76.971657">Y</tspan></text><path
         id="rect865"
         style="fill:#383d4b;fill-opacity:1;stroke-width:264.583;stroke-linecap:round"
         d="m 502.6769,144.01892 c -0.57576,0 -3.16626,4.48764 -2.87838,4.98626 0.1138,0.19711 0.99476,0.31478 2.03347,0.35605 v 26.2723 c 0,0.46825 0.37665,0.84542 0.84491,0.84542 0.46826,0 0.84543,-0.37717 0.84543,-0.84542 v -26.2723 c 1.03871,-0.0413 1.91966,-0.15894 2.03346,-0.35605 0.28788,-0.49862 -2.30313,-4.98626 -2.87889,-4.98626 z" /><rect
         style="fill:#c1586f;fill-opacity:1;stroke-width:185.435;stroke-linecap:round"
         id="rect3854"
         width="110.30335"
         height="27.243559"
         x="447.52545"
         y="116.77542"
         ry="8.5710068" /><text
         xml:space="preserve"
         transform="matrix(0.20023309,0,0,0.20023309,421.58123,29.192717)"
         id="text4201"
         style="font-style:normal;font-weight:normal;font-size:53.3333px;line-height:1.25;font-family:sans-serif;text-align:center;white-space:pre;shape-inside:url(#rect4203);display:inline;fill:#ffffff;fill-opacity:1;stroke:none"><tspan
           x="394.08301"
           y="525.27711"
           id="tspan1375"><tspan
             style="font-family:Charter;-inkscape-font-specification:Charter"
             id="tspan1373">f</tspan></tspan></text><path
         id="path1606"
         style="fill:#383d4b;fill-opacity:1;stroke-width:264.583;stroke-linecap:round"
         d="m 704.08424,158.71208 v 1.26814 9.56634 5.21725 h -23.17688 -16.54937 -10.57455 -24.02179 -16.54938 -9.57978 -14.44201 -9.57978 -16.4393 c -0.0413,-1.03871 -0.15946,-1.91966 -0.35657,-2.03347 -0.49862,-0.28787 -4.98626,2.30262 -4.98626,2.87838 0,0.57576 4.48764,3.16677 4.98626,2.87889 0.19711,-0.1138 0.3153,-0.99475 0.35657,-2.03346 h 16.4393 9.57978 14.44201 9.57978 16.54938 24.02179 10.57455 16.54937 24.02179 5.2e-4 c 0.0584,0 0.11506,-0.006 0.17002,-0.0171 h 5.1e-4 c 0.055,-0.0112 0.1082,-0.0278 0.15865,-0.0491 h 5.2e-4 c 0.0504,-0.0212 0.0984,-0.0474 0.14314,-0.0775 l 5.2e-4,-5.2e-4 c 0.13467,-0.0909 0.24144,-0.21941 0.3054,-0.37104 v -5.1e-4 c 0.0213,-0.0505 0.0379,-0.1037 0.0491,-0.15865 v -5.2e-4 c 0.0112,-0.055 0.0171,-0.11166 0.0171,-0.17001 v -5.2e-4 -6.06216 -9.56634 -1.26814 z" /><path
         id="path898"
         style="fill:#383d4b;fill-opacity:1;stroke-width:264.583;stroke-linecap:round"
         d="m 704.92967,128.12997 c -0.46826,0 -0.84543,0.37716 -0.84543,0.84542 v 8.56072 c -1.03871,0.0413 -1.91966,0.15894 -2.03346,0.35605 -0.28788,0.49862 2.30313,4.98626 2.87889,4.98626 0.57576,0 3.16626,-4.48764 2.87838,-4.98626 -0.1138,-0.19711 -0.99476,-0.31478 -2.03347,-0.35605 v -8.56072 c 0,-0.46826 -0.37665,-0.84542 -0.84491,-0.84542 z" /><rect
         style="fill:#c4996c;fill-opacity:1;stroke-width:185.435;stroke-linecap:round"
         id="rect2859"
         width="110.30335"
         height="27.243559"
         x="447.52545"
         y="161.98718"
         ry="8.5710068" /><text
         xml:space="preserve"
         transform="matrix(0.20023309,0,0,0.20023309,422.73818,74.575708)"
         id="text2865"
         style="font-style:normal;font-weight:normal;font-size:53.3333px;line-height:1.25;font-family:sans-serif;text-align:center;white-space:pre;shape-inside:url(#rect2867);display:inline;fill:#ffffff;fill-opacity:1;stroke:none"><tspan
           x="382.58888"
           y="524.43493"
           id="tspan1379"><tspan
             style="font-family:Chalkduster;-inkscape-font-specification:Chalkduster"
             id="tspan1377">θ</tspan></tspan></text><path
         id="path1610"
         style="fill:#383d4b;fill-opacity:1;stroke-width:264.583;stroke-linecap:round"
         d="m 704.92984,57.154878 c -0.46826,0 -0.84543,0.37716 -0.84543,0.84542 v 8.56072 c -1.03871,0.0413 -1.91966,0.15894 -2.03346,0.35605 -0.28788,0.49862 2.30313,4.98626 2.87889,4.98626 0.57576,0 3.16626,-4.48764 2.87838,-4.98626 -0.1138,-0.19711 -0.99476,-0.31478 -2.03347,-0.35605 v -8.56072 c 0,-0.46826 -0.37665,-0.84542 -0.84491,-0.84542 z" /><rect
         style="fill:#1c1e25;fill-opacity:1;stroke-width:185.435;stroke-linecap:round"
         id="rect917"
         width="110.30335"
         height="27.243559"
         x="649.43671"
         y="33.003487"
         ry="8.5710068" /><text
         xml:space="preserve"
         transform="matrix(0.20023309,0,0,0.20023309,624.65201,-54.879048)"
         id="text923"
         style="font-style:normal;font-weight:normal;font-size:53.3333px;line-height:1.25;font-family:sans-serif;text-align:center;white-space:pre;shape-inside:url(#rect925);display:inline;fill:#ffffff;fill-opacity:1;stroke:none"><tspan
           x="378.79982"
           y="525.27711"
           id="tspan1383"><tspan
             style="font-family:Charter;-inkscape-font-specification:Charter;baseline-shift:baseline;opacity:1;vector-effect:none;stop-color:#000000;stop-opacity:1"
             id="tspan1381">Ω</tspan></tspan></text><text
         xml:space="preserve"
         transform="matrix(0.20023309,0,0,0.20023309,625.33446,-15.979206)"
         id="text2879"
         style="font-style:normal;font-weight:normal;font-size:53.3333px;line-height:1.25;font-family:sans-serif;text-align:center;white-space:pre;shape-inside:url(#rect2883);display:inline;fill:#ffffff;fill-opacity:1;stroke:none"><tspan
           x="384.90658"
           y="525.27711"
           id="tspan1387"><tspan
             style="font-family:Charter;-inkscape-font-specification:Charter;baseline-shift:baseline;opacity:1;vector-effect:none;stop-color:#000000;stop-opacity:1"
             id="tspan1385">F</tspan></tspan></text><rect
         style="fill:#ffffff;fill-opacity:1;stroke-width:173.583;stroke-linecap:round"
         id="rect2940"
         width="96.654282"
         height="27.243559"
         x="656.26123"
         y="101.93127"
         ry="8.5710068" /><text
         xml:space="preserve"
         transform="matrix(0.20023309,0,0,0.20023309,624.65201,14.89608)"
         id="text2944"
         style="font-style:normal;font-weight:normal;font-size:53.3333px;line-height:1.25;font-family:sans-serif;text-align:center;white-space:pre;shape-inside:url(#rect2948);display:inline;fill:#1c1e25;fill-opacity:1;stroke:none"><tspan
           x="245.70094"
           y="525.27711"
           id="tspan1395"><tspan
             style="font-family:Charter;-inkscape-font-specification:Charter;baseline-shift:baseline;opacity:1;vector-effect:none;stop-color:#000000;stop-opacity:1"
             id="tspan1389">L = </tspan><tspan
             style="font-family:Charter;-inkscape-font-specification:Charter;baseline-shift:baseline;opacity:1;vector-effect:none;stop-color:#000000;stop-opacity:1"
             id="tspan1391">ε = </tspan><tspan
             style="font-family:Charter;-inkscape-font-specification:Charter;baseline-shift:baseline;opacity:1;vector-effect:none;stop-color:#000000;stop-opacity:1"
             id="tspan1393">Y - Ỹ</tspan></tspan></text><rect
         style="fill:#ffffff;fill-opacity:1;stroke-width:173.583;stroke-linecap:round"
         id="rect2953"
         width="96.654282"
         height="27.243559"
         x="656.26123"
         y="142.87848"
         ry="8.5710068" /><text
         xml:space="preserve"
         transform="matrix(0.20023309,0,0,0.20023309,624.65201,55.843281)"
         id="text2957"
         style="font-style:normal;font-weight:normal;font-size:53.3333px;line-height:1.25;font-family:sans-serif;text-align:center;white-space:pre;shape-inside:url(#rect2959);display:inline;fill:#1c1e25;fill-opacity:1;stroke:none"><tspan
           x="294.09935"
           y="525.27711"
           id="tspan1399"><tspan
             style="font-family:Charter;-inkscape-font-specification:Charter;baseline-shift:baseline;opacity:1;vector-effect:none;stop-color:#000000;stop-opacity:1"
             id="tspan1397">θ' = θ - ε</tspan></tspan></text></g><rect
       style="fill:#999faa;fill-opacity:1;stroke-width:264.583;stroke-linecap:round"
       id="rect820"
       width="1.6904775"
       height="42.26194"
       x="218.92967"
       y="-622.84955"
       ry="0.84523875"
       transform="rotate(90)" /><path
       sodipodi:type="star"
       style="fill:#999faa;fill-opacity:1;stroke-width:264.583;stroke-linecap:round"
       id="path1490"
       inkscape:flatsided="true"
       sodipodi:sides="3"
       sodipodi:cx="44.719353"
       sodipodi:cy="236.46123"
       sodipodi:r1="16.720558"
       sodipodi:r2="14.480429"
       sodipodi:arg1="0.52359878"
       sodipodi:arg2="1.5707963"
       inkscape:rounded="0.1"
       inkscape:randomized="0"
       d="m 59.199781,244.82151 c -1.448043,2.50808 -27.512814,2.50808 -28.960856,0 -1.448043,-2.50809 11.584342,-25.08084 14.480428,-25.08084 2.896085,0 15.928471,22.57275 14.480428,25.08084 z"
       inkscape:transform-center-y="0.55776335"
       transform="matrix(-0.17217039,0.09940262,0.09940262,0.17217039,416.79769,-63.431367)"
       inkscape:transform-center-x="-0.96607658" /><g
       id="g1201"
       transform="translate(272.70888)"><rect
         style="fill:#999faa;fill-opacity:1;stroke-width:244.965;stroke-linecap:round"
         id="rect13382"
         width="30.535957"
         height="27.243999"
         x="239.43396"
         y="-102.31561"
         ry="9.3484344" /><rect
         style="fill:#1c1e25;fill-opacity:1;stroke-width:244.965;stroke-linecap:round"
         id="rect13384"
         width="30.535957"
         height="27.243999"
         x="132.47249"
         y="-102.31561"
         ry="9.3484344" /><rect
         style="fill:#4b95a1;fill-opacity:1;stroke-width:244.965;stroke-linecap:round"
         id="rect13386"
         width="30.535957"
         height="27.243999"
         x="310.74158"
         y="-102.31561"
         ry="9.3484344" /><rect
         style="fill:#c1586f;fill-opacity:1;stroke-width:244.965;stroke-linecap:round"
         id="rect13388"
         width="30.535957"
         height="27.243999"
         x="168.12631"
         y="-102.31561"
         ry="9.3484344" /><rect
         style="fill:#ffffff;fill-opacity:1;stroke-width:244.965;stroke-linecap:round"
         id="rect13873"
         width="30.535957"
         height="27.243999"
         x="382.04922"
         y="-102.31561"
         ry="9.3484344" /><rect
         style="fill:#5c626e;fill-opacity:1;stroke-width:244.965;stroke-linecap:round"
         id="rect16695"
         width="30.535957"
         height="27.243999"
         x="275.08777"
         y="-102.31561"
         ry="9.3484344" /><rect
         style="fill:#c4996c;fill-opacity:1;stroke-width:244.965;stroke-linecap:round"
         id="rect21654"
         width="30.535957"
         height="27.243999"
         x="346.39542"
         y="-102.31561"
         ry="9.3484344" /><rect
         style="fill:#383d4b;fill-opacity:1;stroke-width:244.965;stroke-linecap:round"
         id="rect22053"
         width="30.535957"
         height="27.243999"
         x="203.78014"
         y="-102.31561"
         ry="9.3484344" /></g><text
       xml:space="preserve"
       style="font-style:normal;font-weight:normal;font-size:9.87778px;line-height:1.25;font-family:sans-serif;fill:#999faa;fill-opacity:1;stroke:none;stroke-width:0.264583"
       x="447.25543"
       y="-15.515692"
       id="text22523"><tspan
         sodipodi:role="line"
         id="tspan22521"
         style="font-style:normal;font-variant:normal;font-weight:normal;font-stretch:normal;font-size:9.87778px;font-family:ro;-inkscape-font-specification:ro;fill:#999faa;fill-opacity:1;stroke-width:0.264583"
         x="447.25543"
         y="-15.515692">Aprendizado Supervisionado</tspan></text></g></svg>
